<?xml version="1.0" encoding="UTF-8" standalone="no"?>
<!DOCTYPE svg PUBLIC "-//W3C//DTD SVG 1.1//EN"
 "http://www.w3.org/Graphics/SVG/1.1/DTD/svg11.dtd">
<!-- Generated by graphviz version 2.40.1 (0)
 -->
<!-- Title: snakemake_dag Pages: 1 -->
<svg width="289pt" height="332pt"
 viewBox="0.00 0.00 288.50 332.00" xmlns="http://www.w3.org/2000/svg" xmlns:xlink="http://www.w3.org/1999/xlink">
<g id="graph0" class="graph" transform="scale(1 1) rotate(0) translate(4 328)">
<title>snakemake_dag</title>
<polygon fill="#ffffff" stroke="transparent" points="-4,4 -4,-328 284.5,-328 284.5,4 -4,4"/>
<!-- 0 -->
<g id="node1" class="node">
<title>0</title>
<path fill="none" stroke="#56d8a9" stroke-width="2" d="M146.5,-36C146.5,-36 116.5,-36 116.5,-36 110.5,-36 104.5,-30 104.5,-24 104.5,-24 104.5,-12 104.5,-12 104.5,-6 110.5,0 116.5,0 116.5,0 146.5,0 146.5,0 152.5,0 158.5,-6 158.5,-12 158.5,-12 158.5,-24 158.5,-24 158.5,-30 152.5,-36 146.5,-36"/>
<text text-anchor="middle" x="131.5" y="-15.5" font-family="sans" font-size="10.00" fill="#000000">all</text>
</g>
<!-- 1 -->
<g id="node2" class="node">
<title>1</title>
<path fill="none" stroke="#afd856" stroke-width="2" d="M113,-108C113,-108 12,-108 12,-108 6,-108 0,-102 0,-96 0,-96 0,-84 0,-84 0,-78 6,-72 12,-72 12,-72 113,-72 113,-72 119,-72 125,-78 125,-84 125,-84 125,-96 125,-96 125,-102 119,-108 113,-108"/>
<text text-anchor="middle" x="62.5" y="-87.5" font-family="sans" font-size="10.00" fill="#000000">plot_miQTL_ROP_scan</text>
</g>
<!-- 1&#45;&gt;0 -->
<g id="edge1" class="edge">
<title>1&#45;&gt;0</title>
<path fill="none" stroke="#c0c0c0" stroke-width="2" d="M79.9116,-71.8314C88.021,-63.3694 97.8156,-53.1489 106.682,-43.8971"/>
<polygon fill="#c0c0c0" stroke="#c0c0c0" stroke-width="2" points="109.4618,-46.0549 113.854,-36.4133 104.4079,-41.2115 109.4618,-46.0549"/>
</g>
<!-- 2 -->
<g id="node3" class="node">
<title>2</title>
<path fill="none" stroke="#d85656" stroke-width="2" d="M149.5,-252C149.5,-252 51.5,-252 51.5,-252 45.5,-252 39.5,-246 39.5,-240 39.5,-240 39.5,-228 39.5,-228 39.5,-222 45.5,-216 51.5,-216 51.5,-216 149.5,-216 149.5,-216 155.5,-216 161.5,-222 161.5,-228 161.5,-228 161.5,-240 161.5,-240 161.5,-246 155.5,-252 149.5,-252"/>
<text text-anchor="middle" x="100.5" y="-231.5" font-family="sans" font-size="10.00" fill="#000000">run_miQTL_ROP_scan</text>
</g>
<!-- 2&#45;&gt;1 -->
<g id="edge3" class="edge">
<title>2&#45;&gt;1</title>
<path fill="none" stroke="#c0c0c0" stroke-width="2" d="M95.6873,-215.7623C89.1773,-191.0928 77.5047,-146.8598 69.8818,-117.9731"/>
<polygon fill="#c0c0c0" stroke="#c0c0c0" stroke-width="2" points="73.2094,-116.8656 67.2736,-108.0896 66.4411,-118.6517 73.2094,-116.8656"/>
</g>
<!-- 4 -->
<g id="node5" class="node">
<title>4</title>
<path fill="none" stroke="#56a9d8" stroke-width="2" d="M245.5,-108C245.5,-108 155.5,-108 155.5,-108 149.5,-108 143.5,-102 143.5,-96 143.5,-96 143.5,-84 143.5,-84 143.5,-78 149.5,-72 155.5,-72 155.5,-72 245.5,-72 245.5,-72 251.5,-72 257.5,-78 257.5,-84 257.5,-84 257.5,-96 257.5,-96 257.5,-102 251.5,-108 245.5,-108"/>
<text text-anchor="middle" x="200.5" y="-87.5" font-family="sans" font-size="10.00" fill="#000000">plot_threshold_scan</text>
</g>
<!-- 2&#45;&gt;4 -->
<g id="edge5" class="edge">
<title>2&#45;&gt;4</title>
<path fill="none" stroke="#c0c0c0" stroke-width="2" d="M100.4067,-215.8848C101.1448,-196.5206 104.8112,-165.6828 119.5,-144 127.8179,-131.7216 139.9505,-121.5159 152.3053,-113.4047"/>
<polygon fill="#c0c0c0" stroke="#c0c0c0" stroke-width="2" points="154.1833,-116.3586 160.85,-108.1241 150.5033,-110.4039 154.1833,-116.3586"/>
</g>
<!-- 5 -->
<g id="node6" class="node">
<title>5</title>
<path fill="none" stroke="#59d856" stroke-width="2" d="M268.5,-180C268.5,-180 140.5,-180 140.5,-180 134.5,-180 128.5,-174 128.5,-168 128.5,-168 128.5,-156 128.5,-156 128.5,-150 134.5,-144 140.5,-144 140.5,-144 268.5,-144 268.5,-144 274.5,-144 280.5,-150 280.5,-156 280.5,-156 280.5,-168 280.5,-168 280.5,-174 274.5,-180 268.5,-180"/>
<text text-anchor="middle" x="204.5" y="-159.5" font-family="sans" font-size="10.00" fill="#000000">threshold_miQTL_ROP_scan</text>
</g>
<!-- 2&#45;&gt;5 -->
<g id="edge7" class="edge">
<title>2&#45;&gt;5</title>
<path fill="none" stroke="#c0c0c0" stroke-width="2" d="M126.7436,-215.8314C139.7995,-206.7927 155.7535,-195.7476 169.8047,-186.0198"/>
<polygon fill="#c0c0c0" stroke="#c0c0c0" stroke-width="2" points="172.0351,-188.7326 178.2648,-180.1628 168.0506,-182.9773 172.0351,-188.7326"/>
</g>
<!-- 3 -->
<g id="node4" class="node">
<title>3</title>
<path fill="none" stroke="#d8ac56" stroke-width="2" d="M148,-324C148,-324 53,-324 53,-324 47,-324 41,-318 41,-312 41,-312 41,-300 41,-300 41,-294 47,-288 53,-288 53,-288 148,-288 148,-288 154,-288 160,-294 160,-300 160,-300 160,-312 160,-312 160,-318 154,-324 148,-324"/>
<text text-anchor="middle" x="100.5" y="-303.5" font-family="sans" font-size="10.00" fill="#000000">average_phenotypes</text>
</g>
<!-- 3&#45;&gt;2 -->
<g id="edge4" class="edge">
<title>3&#45;&gt;2</title>
<path fill="none" stroke="#c0c0c0" stroke-width="2" d="M100.5,-287.8314C100.5,-280.131 100.5,-270.9743 100.5,-262.4166"/>
<polygon fill="#c0c0c0" stroke="#c0c0c0" stroke-width="2" points="104.0001,-262.4132 100.5,-252.4133 97.0001,-262.4133 104.0001,-262.4132"/>
</g>
<!-- 4&#45;&gt;0 -->
<g id="edge2" class="edge">
<title>4&#45;&gt;0</title>
<path fill="none" stroke="#c0c0c0" stroke-width="2" d="M183.0884,-71.8314C174.979,-63.3694 165.1844,-53.1489 156.318,-43.8971"/>
<polygon fill="#c0c0c0" stroke="#c0c0c0" stroke-width="2" points="158.5921,-41.2115 149.146,-36.4133 153.5382,-46.0549 158.5921,-41.2115"/>
</g>
<!-- 5&#45;&gt;4 -->
<g id="edge6" class="edge">
<title>5&#45;&gt;4</title>
<path fill="none" stroke="#c0c0c0" stroke-width="2" d="M203.4906,-143.8314C203.0628,-136.131 202.5541,-126.9743 202.0787,-118.4166"/>
<polygon fill="#c0c0c0" stroke="#c0c0c0" stroke-width="2" points="205.5724,-118.2037 201.523,-108.4133 198.5831,-118.592 205.5724,-118.2037"/>
</g>
</g>
</svg>
