<?xml version="1.0" encoding="UTF-8" standalone="no"?>
<!DOCTYPE svg PUBLIC "-//W3C//DTD SVG 1.1//EN"
 "http://www.w3.org/Graphics/SVG/1.1/DTD/svg11.dtd">
<!-- Generated by graphviz version 2.40.1 (0)
 -->
<!-- Title: snakemake_dag Pages: 1 -->
<svg width="266pt" height="260pt"
 viewBox="0.00 0.00 265.50 260.00" xmlns="http://www.w3.org/2000/svg" xmlns:xlink="http://www.w3.org/1999/xlink">
<g id="graph0" class="graph" transform="scale(1 1) rotate(0) translate(4 256)">
<title>snakemake_dag</title>
<polygon fill="#ffffff" stroke="transparent" points="-4,4 -4,-256 261.5,-256 261.5,4 -4,4"/>
<!-- 0 -->
<g id="node1" class="node">
<title>0</title>
<path fill="none" stroke="#56a9d8" stroke-width="2" d="M146.5,-36C146.5,-36 116.5,-36 116.5,-36 110.5,-36 104.5,-30 104.5,-24 104.5,-24 104.5,-12 104.5,-12 104.5,-6 110.5,0 116.5,0 116.5,0 146.5,0 146.5,0 152.5,0 158.5,-6 158.5,-12 158.5,-12 158.5,-24 158.5,-24 158.5,-30 152.5,-36 146.5,-36"/>
<text text-anchor="middle" x="131.5" y="-15.5" font-family="sans" font-size="10.00" fill="#000000">all</text>
</g>
<!-- 1 -->
<g id="node2" class="node">
<title>1</title>
<path fill="none" stroke="#d85656" stroke-width="2" d="M113,-108C113,-108 12,-108 12,-108 6,-108 0,-102 0,-96 0,-96 0,-84 0,-84 0,-78 6,-72 12,-72 12,-72 113,-72 113,-72 119,-72 125,-78 125,-84 125,-84 125,-96 125,-96 125,-102 119,-108 113,-108"/>
<text text-anchor="middle" x="62.5" y="-87.5" font-family="sans" font-size="10.00" fill="#000000">plot_miQTL_ROP_scan</text>
</g>
<!-- 1&#45;&gt;0 -->
<g id="edge2" class="edge">
<title>1&#45;&gt;0</title>
<path fill="none" stroke="#c0c0c0" stroke-width="2" d="M79.9116,-71.8314C88.021,-63.3694 97.8156,-53.1489 106.682,-43.8971"/>
<polygon fill="#c0c0c0" stroke="#c0c0c0" stroke-width="2" points="109.4618,-46.0549 113.854,-36.4133 104.4079,-41.2115 109.4618,-46.0549"/>
</g>
<!-- 2 -->
<g id="node3" class="node">
<title>2</title>
<path fill="none" stroke="#59d856" stroke-width="2" d="M180.5,-180C180.5,-180 82.5,-180 82.5,-180 76.5,-180 70.5,-174 70.5,-168 70.5,-168 70.5,-156 70.5,-156 70.5,-150 76.5,-144 82.5,-144 82.5,-144 180.5,-144 180.5,-144 186.5,-144 192.5,-150 192.5,-156 192.5,-156 192.5,-168 192.5,-168 192.5,-174 186.5,-180 180.5,-180"/>
<text text-anchor="middle" x="131.5" y="-159.5" font-family="sans" font-size="10.00" fill="#000000">run_miQTL_ROP_scan</text>
</g>
<!-- 2&#45;&gt;1 -->
<g id="edge3" class="edge">
<title>2&#45;&gt;1</title>
<path fill="none" stroke="#c0c0c0" stroke-width="2" d="M114.0884,-143.8314C105.979,-135.3694 96.1844,-125.1489 87.318,-115.8971"/>
<polygon fill="#c0c0c0" stroke="#c0c0c0" stroke-width="2" points="89.5921,-113.2115 80.146,-108.4133 84.5382,-118.0549 89.5921,-113.2115"/>
</g>
<!-- 4 -->
<g id="node5" class="node">
<title>4</title>
<path fill="none" stroke="#afd856" stroke-width="2" d="M245.5,-108C245.5,-108 155.5,-108 155.5,-108 149.5,-108 143.5,-102 143.5,-96 143.5,-96 143.5,-84 143.5,-84 143.5,-78 149.5,-72 155.5,-72 155.5,-72 245.5,-72 245.5,-72 251.5,-72 257.5,-78 257.5,-84 257.5,-84 257.5,-96 257.5,-96 257.5,-102 251.5,-108 245.5,-108"/>
<text text-anchor="middle" x="200.5" y="-87.5" font-family="sans" font-size="10.00" fill="#000000">plot_threshold_scan</text>
</g>
<!-- 2&#45;&gt;4 -->
<g id="edge5" class="edge">
<title>2&#45;&gt;4</title>
<path fill="none" stroke="#c0c0c0" stroke-width="2" d="M148.9116,-143.8314C157.021,-135.3694 166.8156,-125.1489 175.682,-115.8971"/>
<polygon fill="#c0c0c0" stroke="#c0c0c0" stroke-width="2" points="178.4618,-118.0549 182.854,-108.4133 173.4079,-113.2115 178.4618,-118.0549"/>
</g>
<!-- 3 -->
<g id="node4" class="node">
<title>3</title>
<path fill="none" stroke="#56d8a9" stroke-width="2" d="M179,-252C179,-252 84,-252 84,-252 78,-252 72,-246 72,-240 72,-240 72,-228 72,-228 72,-222 78,-216 84,-216 84,-216 179,-216 179,-216 185,-216 191,-222 191,-228 191,-228 191,-240 191,-240 191,-246 185,-252 179,-252"/>
<text text-anchor="middle" x="131.5" y="-231.5" font-family="sans" font-size="10.00" fill="#000000">average_phenotypes</text>
</g>
<!-- 3&#45;&gt;2 -->
<g id="edge4" class="edge">
<title>3&#45;&gt;2</title>
<path fill="none" stroke="#c0c0c0" stroke-width="2" d="M131.5,-215.8314C131.5,-208.131 131.5,-198.9743 131.5,-190.4166"/>
<polygon fill="#c0c0c0" stroke="#c0c0c0" stroke-width="2" points="135.0001,-190.4132 131.5,-180.4133 128.0001,-190.4133 135.0001,-190.4132"/>
</g>
<!-- 4&#45;&gt;0 -->
<g id="edge1" class="edge">
<title>4&#45;&gt;0</title>
<path fill="none" stroke="#c0c0c0" stroke-width="2" d="M183.0884,-71.8314C174.979,-63.3694 165.1844,-53.1489 156.318,-43.8971"/>
<polygon fill="#c0c0c0" stroke="#c0c0c0" stroke-width="2" points="158.5921,-41.2115 149.146,-36.4133 153.5382,-46.0549 158.5921,-41.2115"/>
</g>
</g>
</svg>
