<?xml version="1.0" encoding="UTF-8" standalone="no"?>
<!DOCTYPE svg PUBLIC "-//W3C//DTD SVG 1.1//EN"
 "http://www.w3.org/Graphics/SVG/1.1/DTD/svg11.dtd">
<!-- Generated by graphviz version 2.40.1 (0)
 -->
<!-- Title: snakemake_dag Pages: 1 -->
<svg width="276pt" height="476pt"
 viewBox="0.00 0.00 276.00 476.00" xmlns="http://www.w3.org/2000/svg" xmlns:xlink="http://www.w3.org/1999/xlink">
<g id="graph0" class="graph" transform="scale(1 1) rotate(0) translate(4 472)">
<title>snakemake_dag</title>
<polygon fill="#ffffff" stroke="transparent" points="-4,4 -4,-472 272,-472 272,4 -4,4"/>
<!-- 0 -->
<g id="node1" class="node">
<title>0</title>
<path fill="none" stroke="#70d856" stroke-width="2" d="M106.5,-36C106.5,-36 76.5,-36 76.5,-36 70.5,-36 64.5,-30 64.5,-24 64.5,-24 64.5,-12 64.5,-12 64.5,-6 70.5,0 76.5,0 76.5,0 106.5,0 106.5,0 112.5,0 118.5,-6 118.5,-12 118.5,-12 118.5,-24 118.5,-24 118.5,-30 112.5,-36 106.5,-36"/>
<text text-anchor="middle" x="91.5" y="-15.5" font-family="sans" font-size="10.00" fill="#000000">all</text>
</g>
<!-- 1 -->
<g id="node2" class="node">
<title>1</title>
<path fill="none" stroke="#5692d8" stroke-width="2" d="M81,-252C81,-252 12,-252 12,-252 6,-252 0,-246 0,-240 0,-240 0,-228 0,-228 0,-222 6,-216 12,-216 12,-216 81,-216 81,-216 87,-216 93,-222 93,-228 93,-228 93,-240 93,-240 93,-246 87,-252 81,-252"/>
<text text-anchor="middle" x="46.5" y="-231.5" font-family="sans" font-size="10.00" fill="#000000">extract_sig_loci</text>
</g>
<!-- 1&#45;&gt;0 -->
<g id="edge2" class="edge">
<title>1&#45;&gt;0</title>
<path fill="none" stroke="#c0c0c0" stroke-width="2" d="M47.3901,-215.703C49.2185,-185.3528 54.4788,-122.8967 68.5,-72 70.9509,-63.1031 74.5461,-53.7431 78.1693,-45.361"/>
<polygon fill="#c0c0c0" stroke="#c0c0c0" stroke-width="2" points="81.445,-46.6112 82.3685,-36.0567 75.0647,-43.7316 81.445,-46.6112"/>
</g>
<!-- 2 -->
<g id="node3" class="node">
<title>2</title>
<path fill="none" stroke="#56d873" stroke-width="2" d="M181.5,-396C181.5,-396 83.5,-396 83.5,-396 77.5,-396 71.5,-390 71.5,-384 71.5,-384 71.5,-372 71.5,-372 71.5,-366 77.5,-360 83.5,-360 83.5,-360 181.5,-360 181.5,-360 187.5,-360 193.5,-366 193.5,-372 193.5,-372 193.5,-384 193.5,-384 193.5,-390 187.5,-396 181.5,-396"/>
<text text-anchor="middle" x="132.5" y="-375.5" font-family="sans" font-size="10.00" fill="#000000">run_miQTL_ROP_scan</text>
</g>
<!-- 2&#45;&gt;1 -->
<g id="edge3" class="edge">
<title>2&#45;&gt;1</title>
<path fill="none" stroke="#c0c0c0" stroke-width="2" d="M86.6456,-359.8019C71.4298,-351.3186 56.1739,-339.5811 47.5,-324 37.0953,-305.3099 37.5323,-280.873 40.1913,-262.1799"/>
<polygon fill="#c0c0c0" stroke="#c0c0c0" stroke-width="2" points="43.6636,-262.6382 41.895,-252.1921 36.7632,-261.4611 43.6636,-262.6382"/>
</g>
<!-- 4 -->
<g id="node5" class="node">
<title>4</title>
<path fill="none" stroke="#56c9d8" stroke-width="2" d="M196.5,-324C196.5,-324 68.5,-324 68.5,-324 62.5,-324 56.5,-318 56.5,-312 56.5,-312 56.5,-300 56.5,-300 56.5,-294 62.5,-288 68.5,-288 68.5,-288 196.5,-288 196.5,-288 202.5,-288 208.5,-294 208.5,-300 208.5,-300 208.5,-312 208.5,-312 208.5,-318 202.5,-324 196.5,-324"/>
<text text-anchor="middle" x="132.5" y="-303.5" font-family="sans" font-size="10.00" fill="#000000">threshold_miQTL_ROP_scan</text>
</g>
<!-- 2&#45;&gt;4 -->
<g id="edge6" class="edge">
<title>2&#45;&gt;4</title>
<path fill="none" stroke="#c0c0c0" stroke-width="2" d="M132.5,-359.8314C132.5,-352.131 132.5,-342.9743 132.5,-334.4166"/>
<polygon fill="#c0c0c0" stroke="#c0c0c0" stroke-width="2" points="136.0001,-334.4132 132.5,-324.4133 129.0001,-334.4133 136.0001,-334.4132"/>
</g>
<!-- 7 -->
<g id="node8" class="node">
<title>7</title>
<path fill="none" stroke="#d88d56" stroke-width="2" d="M256,-252C256,-252 173,-252 173,-252 167,-252 161,-246 161,-240 161,-240 161,-228 161,-228 161,-222 167,-216 173,-216 173,-216 256,-216 256,-216 262,-216 268,-222 268,-228 268,-228 268,-240 268,-240 268,-246 262,-252 256,-252"/>
<text text-anchor="middle" x="214.5" y="-231.5" font-family="sans" font-size="10.00" fill="#000000">define_sig_bounds</text>
</g>
<!-- 2&#45;&gt;7 -->
<g id="edge10" class="edge">
<title>2&#45;&gt;7</title>
<path fill="none" stroke="#c0c0c0" stroke-width="2" d="M178.4486,-359.8539C193.6745,-351.3763 208.9128,-339.629 217.5,-324 227.8058,-305.2431 226.2318,-280.8109 222.5364,-262.1366"/>
<polygon fill="#c0c0c0" stroke="#c0c0c0" stroke-width="2" points="225.8968,-261.1305 220.2585,-252.1606 219.0725,-262.6888 225.8968,-261.1305"/>
</g>
<!-- 3 -->
<g id="node4" class="node">
<title>3</title>
<path fill="none" stroke="#56d8a9" stroke-width="2" d="M180,-468C180,-468 85,-468 85,-468 79,-468 73,-462 73,-456 73,-456 73,-444 73,-444 73,-438 79,-432 85,-432 85,-432 180,-432 180,-432 186,-432 192,-438 192,-444 192,-444 192,-456 192,-456 192,-462 186,-468 180,-468"/>
<text text-anchor="middle" x="132.5" y="-447.5" font-family="sans" font-size="10.00" fill="#000000">average_phenotypes</text>
</g>
<!-- 3&#45;&gt;2 -->
<g id="edge5" class="edge">
<title>3&#45;&gt;2</title>
<path fill="none" stroke="#c0c0c0" stroke-width="2" d="M132.5,-431.8314C132.5,-424.131 132.5,-414.9743 132.5,-406.4166"/>
<polygon fill="#c0c0c0" stroke="#c0c0c0" stroke-width="2" points="136.0001,-406.4132 132.5,-396.4133 129.0001,-406.4133 136.0001,-406.4132"/>
</g>
<!-- 4&#45;&gt;1 -->
<g id="edge4" class="edge">
<title>4&#45;&gt;1</title>
<path fill="none" stroke="#c0c0c0" stroke-width="2" d="M110.7986,-287.8314C100.3079,-279.0485 87.5545,-268.3712 76.1806,-258.8489"/>
<polygon fill="#c0c0c0" stroke="#c0c0c0" stroke-width="2" points="78.1089,-255.8986 68.1945,-252.1628 73.6153,-261.2659 78.1089,-255.8986"/>
</g>
<!-- 6 -->
<g id="node7" class="node">
<title>6</title>
<path fill="none" stroke="#afd856" stroke-width="2" d="M200,-180C200,-180 87,-180 87,-180 81,-180 75,-174 75,-168 75,-168 75,-156 75,-156 75,-150 81,-144 87,-144 87,-144 200,-144 200,-144 206,-144 212,-150 212,-156 212,-156 212,-168 212,-168 212,-174 206,-180 200,-180"/>
<text text-anchor="middle" x="143.5" y="-159.5" font-family="sans" font-size="10.00" fill="#000000">make_locus_zoom_plots</text>
</g>
<!-- 4&#45;&gt;6 -->
<g id="edge9" class="edge">
<title>4&#45;&gt;6</title>
<path fill="none" stroke="#c0c0c0" stroke-width="2" d="M133.8932,-287.7623C135.7694,-263.201 139.1269,-219.2474 141.3341,-190.3541"/>
<polygon fill="#c0c0c0" stroke="#c0c0c0" stroke-width="2" points="144.8462,-190.3272 142.1182,-180.0896 137.8666,-189.794 144.8462,-190.3272"/>
</g>
<!-- 4&#45;&gt;7 -->
<g id="edge11" class="edge">
<title>4&#45;&gt;7</title>
<path fill="none" stroke="#c0c0c0" stroke-width="2" d="M153.1921,-287.8314C163.1948,-279.0485 175.355,-268.3712 186.1999,-258.8489"/>
<polygon fill="#c0c0c0" stroke="#c0c0c0" stroke-width="2" points="188.6094,-261.3909 193.8146,-252.1628 183.9908,-256.1308 188.6094,-261.3909"/>
</g>
<!-- 5 -->
<g id="node6" class="node">
<title>5</title>
<path fill="none" stroke="#d85656" stroke-width="2" d="M189,-108C189,-108 90,-108 90,-108 84,-108 78,-102 78,-96 78,-96 78,-84 78,-84 78,-78 84,-72 90,-72 90,-72 189,-72 189,-72 195,-72 201,-78 201,-84 201,-84 201,-96 201,-96 201,-102 195,-108 189,-108"/>
<text text-anchor="middle" x="139.5" y="-87.5" font-family="sans" font-size="10.00" fill="#000000">zip_locus_zoom_plots</text>
</g>
<!-- 5&#45;&gt;0 -->
<g id="edge1" class="edge">
<title>5&#45;&gt;0</title>
<path fill="none" stroke="#c0c0c0" stroke-width="2" d="M127.3876,-71.8314C121.9719,-63.7079 115.4758,-53.9637 109.5079,-45.0118"/>
<polygon fill="#c0c0c0" stroke="#c0c0c0" stroke-width="2" points="112.2347,-42.7923 103.7755,-36.4133 106.4104,-46.6753 112.2347,-42.7923"/>
</g>
<!-- 6&#45;&gt;5 -->
<g id="edge7" class="edge">
<title>6&#45;&gt;5</title>
<path fill="none" stroke="#c0c0c0" stroke-width="2" d="M142.4906,-143.8314C142.0628,-136.131 141.5541,-126.9743 141.0787,-118.4166"/>
<polygon fill="#c0c0c0" stroke="#c0c0c0" stroke-width="2" points="144.5724,-118.2037 140.523,-108.4133 137.5831,-118.592 144.5724,-118.2037"/>
</g>
<!-- 7&#45;&gt;6 -->
<g id="edge8" class="edge">
<title>7&#45;&gt;6</title>
<path fill="none" stroke="#c0c0c0" stroke-width="2" d="M196.5837,-215.8314C188.1558,-207.2848 177.959,-196.9443 168.764,-187.6198"/>
<polygon fill="#c0c0c0" stroke="#c0c0c0" stroke-width="2" points="171.1711,-185.0761 161.6575,-180.4133 166.1869,-189.9912 171.1711,-185.0761"/>
</g>
</g>
</svg>
